<svg width="34" height="44" viewBox="0 0 34 44" fill="none" xmlns="http://www.w3.org/2000/svg">
<path d="M0 0.297465V0H9.50948C18.3482 0 22.0967 3.82986 22.0967 12.6423C22.0967 21.1944 18.5849 26.5859 10.2986 26.5859H0V26.2885H2.52534V0.297465H0ZM9.50948 0.297465H7.93114V26.2885H10.2986C15.0337 26.2885 16.5725 21.2315 16.5725 12.6423C16.5725 4.01577 14.8758 0.297465 9.50948 0.297465Z" fill="white"/>
<path d="M10.3644 17.3397V17.0423H20.1896V17.3397H18.0588C18.0983 17.8975 18.2956 18.5296 18.4928 19.0501L24.53 36.7493L30.5671 18.9014C30.6855 18.5668 30.725 18.3808 30.725 18.1206C30.725 17.5628 30.1725 17.3397 29.3044 17.3397H27.3315V17.0423H34V17.3397C31.8298 17.3397 31.3957 17.7859 30.9222 19.1617L22.5176 44H21.8074L12.2584 17.3397H10.3644Z" fill="white"/>
</svg>
