<svg width="347" height="1924" viewBox="0 0 347 1924" fill="none" xmlns="http://www.w3.org/2000/svg">
<path d="M18.1603 2.31655C16.7118 33.7409 15.2965 64.5807 15.2986 96.1577C15.3063 217.063 14.7725 337.514 24.9667 457.953C36.7111 596.706 54.2139 734.968 93.3006 866.132C126.789 978.51 172.638 1084.38 223.966 1185.24C243.669 1223.96 265.478 1266.12 295.069 1294.33C301.162 1299.33 313.031 1305.05 326.277 1294.15C334.167 1287.66 339.103 1276.97 341.216 1265.5C345.297 1243.34 344.925 1212.35 344.723 1189.82C344.373 1150.71 342.409 1118.09 337.057 1079.48C330.649 1033.25 315.512 971.741 292.878 934.177C279.215 911.501 264.144 896.616 257.234 890.958C249.656 884.753 240.727 879.536 231.568 878.237C221.516 876.81 210.474 881.14 201.516 886.462C173.852 902.897 154.933 934.454 140.359 967.286C117.815 1018.07 101.083 1072.86 84.9787 1127.26C60.5306 1209.86 74.5566 1304.81 57.9611 1390.47C47.5197 1444.37 38.7619 1498.6 30.6766 1553.14C22.5447 1607.99 13.9109 1662.88 7.99954 1718.21C0.756439 1786.01 1.38346 1854.17 1.75702 1922.44" stroke="#CAD1C6" stroke-width="3" stroke-linecap="round"/>
</svg>
