<svg width="48" height="43" viewBox="0 0 48 43" fill="none" xmlns="http://www.w3.org/2000/svg">
<path d="M12.4375 0.719994L17.4295 4.30399C16.5762 5.41333 15.5522 7.12 14.3575 9.424C13.1628 11.6427 12.1388 14.1173 11.2855 16.848C10.4322 19.4933 10.0482 22.0533 10.1335 24.528C10.7308 24.3573 11.2002 24.272 11.5415 24.272C11.9682 24.1867 12.3948 24.144 12.8215 24.144C15.1255 24.144 17.1735 24.8267 18.9655 26.192C20.7575 27.472 21.6535 29.6053 21.6535 32.592C21.6535 35.152 20.8002 37.4133 19.0935 39.376C17.4722 41.2533 15.2535 42.192 12.4375 42.192C8.51217 42.2773 5.56817 41.04 3.6055 38.48C1.64283 35.8347 0.6615 32.592 0.6615 28.752C0.6615 26.0213 1.08817 23.12 1.9415 20.048C2.79483 16.976 4.07483 13.8187 5.7815 10.576C7.5735 7.24799 9.79217 3.96266 12.4375 0.719994ZM38.0375 0.719994L43.0295 4.30399C42.1762 5.41333 41.1522 7.12 39.9575 9.424C38.7628 11.6427 37.7388 14.1173 36.8855 16.848C36.0322 19.4933 35.6482 22.0533 35.7335 24.528C36.3308 24.3573 36.8002 24.272 37.1415 24.272C37.5682 24.1867 37.9948 24.144 38.4215 24.144C40.7255 24.144 42.7735 24.8267 44.5655 26.192C46.3575 27.472 47.2535 29.6053 47.2535 32.592C47.2535 35.152 46.4002 37.4133 44.6935 39.376C43.0722 41.2533 40.8535 42.192 38.0375 42.192C34.1122 42.2773 31.1682 41.04 29.2055 38.48C27.2428 35.8347 26.2615 32.592 26.2615 28.752C26.2615 26.0213 26.6882 23.12 27.5415 20.048C28.3948 16.976 29.6748 13.8187 31.3815 10.576C33.1735 7.24799 35.3922 3.96266 38.0375 0.719994Z" fill="#464D43"/>
</svg>
