<svg width="48" height="43" viewBox="0 0 48 43" fill="none" xmlns="http://www.w3.org/2000/svg">
<path d="M10.0915 42.192L5.0995 38.608C6.03817 37.4133 7.06217 35.7067 8.1715 33.488C9.36617 31.2693 10.3902 28.8373 11.2435 26.192C12.0968 23.4613 12.4808 20.8587 12.3955 18.384C11.7982 18.5547 11.2862 18.6827 10.8595 18.768C10.5182 18.768 10.1342 18.768 9.7075 18.768C7.4035 18.768 5.3555 18.0853 3.5635 16.72C1.7715 15.3547 0.8755 13.2213 0.8755 10.32C0.8755 7.75999 1.68617 5.54133 3.3075 3.66399C5.01417 1.70133 7.2755 0.719994 10.0915 0.719994C14.0168 0.634661 16.9608 1.91466 18.9235 4.56C20.8862 7.12 21.8675 10.32 21.8675 14.16C21.8675 16.8907 21.4408 19.792 20.5875 22.864C19.7342 25.936 18.4115 29.0933 16.6195 32.336C14.9128 35.5787 12.7368 38.864 10.0915 42.192ZM35.6915 42.192L30.6995 38.608C31.6382 37.4133 32.6622 35.7067 33.7715 33.488C34.9662 31.2693 35.9902 28.8373 36.8435 26.192C37.6968 23.4613 38.0808 20.8587 37.9955 18.384C37.3982 18.5547 36.8862 18.6827 36.4595 18.768C36.1182 18.768 35.7342 18.768 35.3075 18.768C33.0035 18.768 30.9555 18.0853 29.1635 16.72C27.3715 15.3547 26.4755 13.2213 26.4755 10.32C26.4755 7.75999 27.2862 5.54133 28.9075 3.66399C30.6142 1.70133 32.8755 0.719994 35.6915 0.719994C39.6168 0.634661 42.5608 1.91466 44.5235 4.56C46.4862 7.12 47.4675 10.32 47.4675 14.16C47.4675 16.8907 47.0408 19.792 46.1875 22.864C45.3342 25.936 44.0115 29.0933 42.2195 32.336C40.5128 35.5787 38.3368 38.864 35.6915 42.192Z" fill="#464D43"/>
</svg>
